<?xml version="1.0" encoding="utf-8"?>
<!-- Generator: Adobe Illustrator 22.0.1, SVG Export Plug-In . SVG Version: 6.00 Build 0)  -->
<svg version="1.1" id="Calque_1" xmlns="http://www.w3.org/2000/svg" xmlns:xlink="http://www.w3.org/1999/xlink" x="0px" y="0px"
	 viewBox="0 0 272.9 141.3" style="enable-background:new 0 0 272.9 141.3;" xml:space="preserve">
<style type="text/css">
	.st0{fill:#FFFFFF;}
	.st1{fill:#E47E3D;}
	.st2{fill:#BDCA8B;}
	.st3{fill:#CC7E9D;}
	.st4{fill:#FFE97F;}
	.st5{fill:#FFD600;}
	.st6{fill:#9D1D64;}
	.st7{fill:#D293AE;}
</style>
<ellipse class="st0" cx="116.3" cy="29.4" rx="10.3" ry="10.3"/>
<ellipse class="st0" cx="120.8" cy="11.9" rx="6.4" ry="6.4"/>
<ellipse transform="matrix(1.132321e-03 -1 1 1.132321e-03 115.1437 154.8143)" class="st0" cx="135.1" cy="19.8" rx="8.1" ry="8.2"/>
<path class="st0" d="M150.6,31.4c0.7,2.7-22.8,27.2-43.4,32.6S66.8,57.9,66,55.2c0,0,21.3,4.5,42-0.8S149.8,28.7,150.6,31.4z"/>
<path class="st0" d="M165,26.9c7.5,23.1-8.6,48.8-35.9,57.6c-27.3,8.8-54.1,1.6-61.5-21.4C60.1,40,67.7,69.6,95,60.9
	C122.3,52,157.6,3.8,165,26.9z"/>
<path class="st0" d="M143.1,84.3l-14.7,6.5c-0.9,0.4-1.9,0-2.2-0.9l0,0c-0.4-0.8,0-1.8,0.9-2.2l14.7-6.5c0.9-0.4,1.9,0,2.2,0.9l0,0
	C144.3,82.9,143.9,83.9,143.1,84.3z"/>
<path class="st0" d="M84.7,56.1c0,0-1.1-15.8,15.1-22.7C103,32,93.8,56.9,84.7,56.1z"/>
<path class="st0" d="M74.7,32.6c0,0,13.9,7.9,10.7,25.3C84.7,61.4,68.9,39.7,74.7,32.6z"/>
<path class="st0" d="M84.1,56.2c0,0,8.5-13.4,25.6-9.5C113.2,47.6,90.9,62.3,84.1,56.2z"/>
<path class="st0" d="M85.5,58.7c0,0-9.4-15.6,3.3-29.8C91.4,26,95.1,55.5,85.5,58.7z"/>
<path class="st0" d="M85.5,58.6c0,0-15.8,2.2-23.9-13.4C59.9,42,85.7,49.4,85.5,58.6z"/>
<ellipse class="st1" cx="113.7" cy="30.4" rx="10.3" ry="10.3"/>
<ellipse class="st2" cx="118.2" cy="12.9" rx="6.4" ry="6.4"/>
<ellipse transform="matrix(1.132321e-03 -1 1 1.132321e-03 111.4406 153.2022)" class="st3" cx="132.4" cy="20.8" rx="8.1" ry="8.2"/>
<path class="st4" d="M147.9,32.4c0.7,2.7-22.8,27.2-43.4,32.6s-40.4-6.1-41.2-8.8c0,0,21.3,4.5,42-0.8S147.2,29.7,147.9,32.4z"/>
<path class="st5" d="M162.4,27.9c7.5,23.1-8.6,48.8-35.9,57.6C99.2,94.3,72.4,87.1,65,64.1c-7.5-23.1,0.1,6.5,27.4-2.2
	C119.6,53,154.9,4.8,162.4,27.9z"/>
<path class="st6" d="M140.4,85.3l-14.7,6.5c-0.9,0.4-1.9,0-2.2-0.9l0,0c-0.4-0.8,0-1.8,0.9-2.2l14.7-6.5c0.9-0.4,1.9,0,2.2,0.9l0,0
	C141.7,83.9,141.3,84.9,140.4,85.3z"/>
<path class="st7" d="M82,57.1c0,0-1.1-15.8,15.1-22.7C100.4,33,91.1,57.9,82,57.1z"/>
<path class="st7" d="M72,33.6c0,0,13.9,7.9,10.7,25.3C82,62.4,66.3,40.7,72,33.6z"/>
<path class="st6" d="M81.4,57.3c0,0,8.5-13.4,25.6-9.5C110.5,48.6,88.2,63.3,81.4,57.3z"/>
<path class="st6" d="M82.9,59.7c0,0-9.4-15.6,3.3-29.8C88.8,27,92.5,56.5,82.9,59.7z"/>
<path class="st6" d="M82.8,59.6c0,0-15.8,2.2-23.9-13.4C57.3,43,83,50.4,82.8,59.6z"/>
<g>
	<path class="st0" d="M35.1,119.1c-1.4,1.5-3.5,2.5-6.3,3.2c1.5,0.4,2.6,1.1,3.4,2s1.2,2,1.2,3.2c0,1.9-0.6,3.5-1.8,4.9
		c-1.2,1.4-2.9,2.5-5.2,3.2c-2.3,0.8-5,1.1-8.2,1.1c-1.2,0-2.2,0-2.9-0.1c0,0.7-0.3,1.2-0.9,1.5s-1.3,0.5-2.1,0.5
		c-0.9,0-1.5-0.2-1.8-0.6s-0.5-0.9-0.4-1.7c0.2-3.4,0.6-6.9,1.3-10.6c0.6-3.7,1.4-7.2,2.4-10.7c0.2-0.6,0.5-1,1-1.3
		c0.5-0.2,1.2-0.4,2-0.4c1.5,0,2.2,0.4,2.2,1.2c0,0.3-0.1,0.7-0.2,1.2c-0.6,1.9-1.2,4.4-1.9,7.6c-0.6,3.2-1.1,6.3-1.3,9.2
		c1.2,0.1,2.1,0.1,2.8,0.1c3.4,0,5.8-0.5,7.4-1.5s2.4-2.2,2.4-3.7c0-1.1-0.5-1.9-1.4-2.7c-0.9-0.7-2.4-1.1-4.5-1.2
		c-0.5,0-0.8-0.1-1-0.4c-0.2-0.2-0.3-0.6-0.3-1c0-0.7,0.1-1.3,0.4-1.7c0.3-0.4,0.8-0.7,1.6-0.7c1.7,0,3.2-0.3,4.6-0.8
		s2.5-1.1,3.3-1.9s1.2-1.8,1.2-2.9c0-1.4-0.7-2.5-2.1-3.3s-3.5-1.2-6.3-1.2c-2.6,0-5.1,0.3-7.5,1s-4.4,1.5-6.1,2.5
		c-0.8,0.5-1.4,0.7-1.9,0.7c-0.4,0-0.8-0.1-1-0.5c-0.2-0.3-0.3-0.7-0.3-1.1c0-0.6,0.1-1.1,0.4-1.5s0.9-0.9,1.8-1.5
		c2-1.2,4.4-2.1,7.1-2.7s5.5-1,8.3-1c4.3,0,7.6,0.7,9.7,2.2s3.2,3.4,3.2,5.8C37.2,115.8,36.5,117.6,35.1,119.1z"/>
	<path class="st0" d="M55.3,126.2c0.2,0.3,0.3,0.7,0.3,1.2c0,1.2-0.3,1.8-1,2.1c-1.4,0.5-3,0.8-4.8,0.9c-0.5,2-1.4,3.6-2.7,4.8
		c-1.3,1.2-2.9,1.8-4.6,1.8c-1.4,0-2.7-0.3-3.7-1s-1.8-1.6-2.3-2.8c-0.5-1.2-0.8-2.4-0.8-3.7c0-1.8,0.3-3.4,1-4.9
		c0.7-1.4,1.7-2.5,2.9-3.3c1.2-0.8,2.6-1.2,4.1-1.2c1.8,0,3.3,0.6,4.4,1.9s1.8,2.8,2,4.7c1.1-0.1,2.5-0.3,4-0.7
		c0.2,0,0.4-0.1,0.5-0.1C54.9,125.8,55.2,125.9,55.3,126.2z M44.8,132.3c0.6-0.6,0.9-1.5,1.1-2.7c-0.7-0.5-1.3-1.2-1.7-2
		c-0.4-0.8-0.6-1.7-0.6-2.6c0-0.4,0-0.8,0.1-1.2h-0.2c-1,0-1.8,0.5-2.4,1.4s-1,2.2-1,3.9c0,1.3,0.3,2.3,0.8,3s1.1,1,1.8,1
		C43.6,133.2,44.2,132.9,44.8,132.3z"/>
	<path class="st0" d="M53.1,135.6c-0.4-1-0.6-2.5-0.6-4.6c0-3.1,0.4-6.1,1.3-8.9c0.2-0.7,0.6-1.2,1.1-1.5s1.2-0.5,2.1-0.5
		c0.5,0,0.8,0.1,1,0.2s0.3,0.3,0.3,0.7c0,0.4-0.2,1.2-0.5,2.6c-0.2,1-0.4,1.8-0.6,2.5c-0.1,0.7-0.3,1.6-0.4,2.7
		c0.8-2.1,1.7-3.7,2.7-5s1.9-2.2,2.9-2.8c0.9-0.6,1.8-0.8,2.6-0.8c1.6,0,2.3,0.8,2.3,2.3c0,0.3-0.1,1.1-0.3,2.3
		c-0.2,1-0.3,1.6-0.3,1.8c0,0.8,0.3,1.3,0.9,1.3c0.7,0,1.5-0.5,2.6-1.6c0.3-0.3,0.6-0.5,1-0.5c0.3,0,0.6,0.1,0.7,0.4
		c0.2,0.3,0.3,0.6,0.3,1.1c0,0.9-0.2,1.6-0.7,2.1c-0.7,0.7-1.5,1.3-2.4,1.8s-1.9,0.7-2.9,0.7c-1.3,0-2.2-0.3-2.9-1
		c-0.7-0.6-1-1.5-1-2.6c0-0.4,0-0.7,0.1-1.1c0-0.5,0.1-0.8,0.1-1c0-0.4-0.1-0.6-0.4-0.6c-0.4,0-0.8,0.4-1.4,1.2
		c-0.6,0.8-1.2,1.9-1.7,3.2c-0.6,1.3-1,2.7-1.4,4.2c-0.3,1.1-0.6,1.9-0.9,2.3s-0.9,0.6-1.6,0.6C54.1,137,53.5,136.5,53.1,135.6z"/>
	<path class="st0" d="M69.7,135.4c-0.9-1.1-1.3-2.5-1.3-4.2c0-1.9,0.4-3.7,1.3-5.5c0.9-1.7,2.1-3.1,3.5-4.1c1.5-1,3-1.6,4.7-1.6
		c0.5,0,0.9,0.1,1.1,0.3c0.2,0.2,0.3,0.6,0.5,1.1c0.5-0.1,1-0.1,1.5-0.1c0.6,0,1,0.1,1.3,0.4s0.5,0.7,0.5,1.2c0,0.6-0.1,1.5-0.4,2.9
		c-0.3,1.5-0.5,2.9-0.6,4.2s-0.2,2.8-0.2,4.5c0,0.9-0.2,1.6-0.6,2s-1,0.6-1.8,0.6s-1.4-0.2-1.8-0.6s-0.6-1-0.6-1.9V134
		c-0.7,2.1-2,3.1-3.9,3.1C71.6,137,70.5,136.5,69.7,135.4z M76.2,132c0.6-0.9,1-2.6,1.5-5l0.7-3.6c-1,0-1.9,0.4-2.7,1.1
		c-0.8,0.7-1.5,1.7-2,2.9s-0.8,2.5-0.8,3.8c0,0.7,0.1,1.3,0.4,1.6c0.3,0.4,0.6,0.6,1.1,0.6C75.1,133.4,75.7,132.9,76.2,132z"/>
	<path class="st0" d="M122.2,119.1c-1.4,1.5-3.5,2.5-6.3,3.2c1.5,0.4,2.6,1.1,3.4,2s1.2,2,1.2,3.2c0,1.9-0.6,3.5-1.8,4.9
		c-1.2,1.4-2.9,2.5-5.2,3.2c-2.3,0.8-5,1.1-8.2,1.1c-1.2,0-2.2,0-2.9-0.1c0,0.7-0.3,1.2-0.9,1.5s-1.3,0.5-2.1,0.5
		c-0.9,0-1.5-0.2-1.8-0.6s-0.5-0.9-0.4-1.7c0.2-3.4,0.6-6.9,1.3-10.6c0.6-3.7,1.4-7.2,2.4-10.7c0.2-0.6,0.5-1,1-1.3s1.2-0.4,2-0.4
		c1.5,0,2.2,0.4,2.2,1.2c0,0.3-0.1,0.7-0.2,1.2c-0.6,1.9-1.2,4.4-1.9,7.6s-1.1,6.3-1.3,9.2c1.2,0.1,2.1,0.1,2.8,0.1
		c3.4,0,5.8-0.5,7.4-1.5s2.4-2.2,2.4-3.7c0-1.1-0.5-1.9-1.3-2.7c-0.9-0.7-2.4-1.1-4.5-1.2c-0.5,0-0.8-0.1-1-0.4
		c-0.2-0.2-0.3-0.6-0.3-1c0-0.7,0.1-1.3,0.4-1.7s0.8-0.7,1.6-0.7c1.7,0,3.2-0.3,4.6-0.8s2.5-1.1,3.3-1.9s1.2-1.8,1.2-2.9
		c0-1.4-0.7-2.5-2.1-3.3s-3.5-1.2-6.3-1.2c-2.6,0-5.1,0.3-7.5,1s-4.4,1.5-6.1,2.5c-0.8,0.5-1.4,0.7-1.9,0.7c-0.4,0-0.8-0.1-1-0.5
		c-0.2-0.3-0.3-0.7-0.3-1.1c0-0.6,0.1-1.1,0.4-1.5s0.9-0.9,1.8-1.5c2-1.2,4.4-2.1,7.1-2.7s5.5-1,8.3-1c4.3,0,7.6,0.7,9.7,2.2
		s3.2,3.4,3.2,5.8C124.4,115.8,123.7,117.6,122.2,119.1z"/>
	<path class="st0" d="M142.5,126.2c0.2,0.3,0.3,0.7,0.3,1.2c0,1.2-0.3,1.8-1,2.1c-1.4,0.5-3,0.8-4.8,0.9c-0.5,2-1.4,3.6-2.7,4.8
		c-1.3,1.2-2.9,1.8-4.6,1.8c-1.4,0-2.7-0.3-3.7-1s-1.8-1.6-2.3-2.8c-0.5-1.2-0.8-2.4-0.8-3.7c0-1.8,0.3-3.4,1-4.9
		c0.7-1.4,1.7-2.5,2.9-3.3c1.2-0.8,2.6-1.2,4.1-1.2c1.8,0,3.3,0.6,4.4,1.9s1.8,2.8,2,4.7c1.1-0.1,2.5-0.3,4-0.7
		c0.2,0,0.4-0.1,0.5-0.1C142.1,125.8,142.3,125.9,142.5,126.2z M131.9,132.3c0.6-0.6,0.9-1.5,1.1-2.7c-0.7-0.5-1.3-1.2-1.7-2
		c-0.4-0.8-0.6-1.7-0.6-2.6c0-0.4,0-0.8,0.1-1.2h-0.2c-1,0-1.8,0.5-2.4,1.4s-1,2.2-1,3.9c0,1.3,0.3,2.3,0.8,3s1.1,1,1.8,1
		C130.7,133.2,131.4,132.9,131.9,132.3z"/>
	<path class="st0" d="M140.3,135.6c-0.4-1-0.6-2.5-0.6-4.6c0-3.1,0.4-6.1,1.3-8.9c0.2-0.7,0.6-1.2,1.1-1.5s1.2-0.5,2.1-0.5
		c0.5,0,0.8,0.1,1,0.2s0.3,0.3,0.3,0.7c0,0.4-0.2,1.2-0.5,2.6c-0.2,1-0.4,1.8-0.6,2.5c-0.1,0.7-0.3,1.6-0.4,2.7
		c0.8-2.1,1.7-3.7,2.7-5s1.9-2.2,2.9-2.8c0.9-0.6,1.8-0.8,2.6-0.8c1.6,0,2.3,0.8,2.3,2.3c0,0.3-0.1,1.1-0.3,2.3
		c-0.2,1-0.3,1.6-0.3,1.8c0,0.8,0.3,1.3,0.9,1.3c0.7,0,1.5-0.5,2.6-1.6c0.3-0.3,0.6-0.5,1-0.5c0.3,0,0.6,0.1,0.7,0.4
		c0.2,0.3,0.3,0.6,0.3,1.1c0,0.9-0.2,1.6-0.7,2.1c-0.7,0.7-1.5,1.3-2.4,1.8s-1.9,0.7-2.9,0.7c-1.3,0-2.2-0.3-2.9-1
		c-0.7-0.6-1-1.5-1-2.6c0-0.4,0-0.7,0.1-1.1c0-0.5,0.1-0.8,0.1-1c0-0.4-0.1-0.6-0.4-0.6c-0.4,0-0.8,0.4-1.4,1.2
		c-0.6,0.8-1.2,1.9-1.7,3.2c-0.6,1.3-1,2.7-1.4,4.2c-0.3,1.1-0.6,1.9-0.9,2.3s-0.9,0.6-1.6,0.6C141.3,137,140.6,136.5,140.3,135.6z"
		/>
	<path class="st0" d="M156.8,135.4c-0.9-1.1-1.3-2.5-1.3-4.2c0-1.9,0.4-3.7,1.3-5.5c0.9-1.7,2.1-3.1,3.5-4.1c1.5-1,3-1.6,4.7-1.6
		c0.5,0,0.9,0.1,1.1,0.3c0.2,0.2,0.3,0.6,0.4,1.1c0.5-0.1,1-0.1,1.5-0.1c0.6,0,1,0.1,1.3,0.4s0.5,0.7,0.5,1.2c0,0.6-0.1,1.5-0.4,2.9
		c-0.3,1.5-0.5,2.9-0.6,4.2c-0.1,1.3-0.2,2.8-0.2,4.5c0,0.9-0.2,1.6-0.6,2s-1,0.6-1.8,0.6s-1.4-0.2-1.8-0.6s-0.6-1-0.6-1.9V134
		c-0.7,2.1-2,3.1-3.9,3.1C158.8,137,157.7,136.5,156.8,135.4z M163.4,132c0.6-0.9,1-2.6,1.5-5l0.7-3.6c-1,0-1.9,0.4-2.7,1.1
		c-0.8,0.7-1.5,1.7-2,2.9s-0.8,2.5-0.8,3.8c0,0.7,0.1,1.3,0.4,1.6c0.3,0.4,0.6,0.6,1.1,0.6C162.2,133.4,162.8,132.9,163.4,132z"/>
	<path class="st0" d="M209.4,119.1c-1.4,1.5-3.5,2.5-6.3,3.2c1.5,0.4,2.6,1.1,3.4,2s1.2,2,1.2,3.2c0,1.9-0.6,3.5-1.8,4.9
		c-1.2,1.4-2.9,2.5-5.2,3.2c-2.3,0.8-5,1.1-8.2,1.1c-1.2,0-2.2,0-2.9-0.1c0,0.7-0.3,1.2-0.9,1.5s-1.3,0.5-2.1,0.5
		c-0.9,0-1.5-0.2-1.8-0.6s-0.5-0.9-0.4-1.7c0.2-3.4,0.6-6.9,1.3-10.6c0.6-3.7,1.4-7.2,2.4-10.7c0.2-0.6,0.5-1,1-1.3s1.2-0.4,2-0.4
		c1.5,0,2.2,0.4,2.2,1.2c0,0.3-0.1,0.7-0.2,1.2c-0.6,1.9-1.2,4.4-1.9,7.6s-1.1,6.3-1.3,9.2c1.2,0.1,2.1,0.1,2.8,0.1
		c3.4,0,5.8-0.5,7.4-1.5s2.4-2.2,2.4-3.7c0-1.1-0.5-1.9-1.3-2.7c-0.9-0.7-2.4-1.1-4.5-1.2c-0.5,0-0.8-0.1-1-0.4
		c-0.2-0.2-0.3-0.6-0.3-1c0-0.7,0.1-1.3,0.4-1.7s0.8-0.7,1.6-0.7c1.7,0,3.2-0.3,4.6-0.8s2.5-1.1,3.3-1.9s1.2-1.8,1.2-2.9
		c0-1.4-0.7-2.5-2.1-3.3s-3.5-1.2-6.3-1.2c-2.6,0-5.1,0.3-7.5,1s-4.4,1.5-6.1,2.5c-0.8,0.5-1.4,0.7-1.9,0.7c-0.4,0-0.8-0.1-1-0.5
		c-0.2-0.3-0.3-0.7-0.3-1.1c0-0.6,0.1-1.1,0.4-1.5s0.9-0.9,1.8-1.5c2-1.2,4.4-2.1,7.1-2.7s5.5-1,8.3-1c4.3,0,7.6,0.7,9.7,2.2
		s3.2,3.4,3.2,5.8C211.6,115.8,210.8,117.6,209.4,119.1z"/>
	<path class="st0" d="M229.6,126.2c0.2,0.3,0.3,0.7,0.3,1.2c0,1.2-0.3,1.8-1,2.1c-1.4,0.5-3,0.8-4.8,0.9c-0.5,2-1.4,3.6-2.7,4.8
		c-1.3,1.2-2.9,1.8-4.6,1.8c-1.4,0-2.7-0.3-3.7-1s-1.8-1.6-2.3-2.8c-0.5-1.2-0.8-2.4-0.8-3.7c0-1.8,0.3-3.4,1-4.9
		c0.7-1.4,1.7-2.5,2.9-3.3c1.2-0.8,2.6-1.2,4.1-1.2c1.8,0,3.3,0.6,4.4,1.9s1.8,2.8,2,4.7c1.1-0.1,2.5-0.3,4-0.7
		c0.2,0,0.4-0.1,0.5-0.1C229.2,125.8,229.5,125.9,229.6,126.2z M219.1,132.3c0.6-0.6,0.9-1.5,1.1-2.7c-0.7-0.5-1.3-1.2-1.7-2
		c-0.4-0.8-0.6-1.7-0.6-2.6c0-0.4,0-0.8,0.1-1.2h-0.2c-1,0-1.8,0.5-2.4,1.4s-1,2.2-1,3.9c0,1.3,0.3,2.3,0.8,3s1.1,1,1.8,1
		C217.9,133.2,218.5,132.9,219.1,132.3z"/>
	<path class="st0" d="M254.4,125.9c0.4,0,0.6,0.1,0.8,0.4c0.2,0.2,0.3,0.6,0.3,1c0,0.7-0.1,1.3-0.4,1.7s-0.7,0.7-1.3,0.9
		c-1.1,0.4-2.3,0.5-3.5,0.5c-1.1,0-2.1-0.1-3-0.4c-0.7,1.1-1.5,2.3-2.3,3.5c-1,1.4-1.8,2.3-2.5,2.8s-1.5,0.8-2.3,0.8
		c-1,0-1.7-0.4-2.2-1.1s-0.8-2-0.9-3.7l-0.2-2.6c-0.7,2-1.4,3.6-2,4.6c-0.6,1.1-1.2,1.8-1.8,2.2c-0.6,0.4-1.3,0.6-2.1,0.6
		c-1,0-1.8-0.4-2.3-1.2c-0.6-0.8-0.9-2-1.1-3.6c-0.3-3.4-0.4-6.3-0.4-8.8v-1.3c0-0.8,0.2-1.3,0.6-1.7c0.4-0.3,1-0.5,1.8-0.5
		c0.6,0,1.1,0.1,1.4,0.4c0.3,0.3,0.5,0.7,0.5,1.4c0,2.8,0.2,6.3,0.5,10.8c1.6-3.4,3.1-7,4.5-10.7c0.3-0.7,0.6-1.2,1-1.5
		s0.8-0.4,1.3-0.4c0.6,0,1.1,0.1,1.4,0.4c0.3,0.3,0.4,0.7,0.4,1.4c0,2.8,0.2,6.3,0.5,10.8c1.4-2.1,2.5-3.8,3.2-5.1
		c-0.4-0.7-0.5-1.5-0.5-2.5c0-0.8,0.2-1.6,0.5-2.4c0.4-0.8,0.9-1.4,1.5-1.9s1.3-0.7,2.1-0.7c0.7,0,1.3,0.2,1.7,0.7s0.6,1.2,0.6,2.1
		c0,1.1-0.3,2.3-0.9,3.7c0.9,0,2.1-0.2,3.6-0.5l1-0.2C254.1,125.9,254.2,125.9,254.4,125.9z"/>
	<path class="st0" d="M263.5,131.4c0.3,0,0.5,0.2,0.7,0.5s0.3,0.7,0.3,1.2c0,1-0.4,1.8-1.1,2.4c-1.2,1-2.7,1.5-4.2,1.5
		c-2.3,0-3.9-1-5-2.9s-1.6-4.4-1.6-7.5c0-2.9,0.4-6.3,1.1-10c0.8-3.7,1.9-7,3.3-9.6c1.5-2.7,3.2-4,5.3-4c1.2,0,2.1,0.5,2.7,1.6
		s1,2.6,1,4.6c0,2.9-0.8,6.2-2.4,9.9c-1.6,3.8-3.7,7.5-6.4,11.2c0.2,1,0.5,1.7,0.9,2.1s1,0.6,1.8,0.6c0.4,0,0.9-0.1,1.4-0.4
		c0.5-0.2,1-0.6,1.4-0.9C263,131.5,263.3,131.4,263.5,131.4z M259.7,109.5c-0.7,2-1.3,4.5-1.8,7.4c-0.5,3-0.8,5.8-0.9,8.5
		c1.7-2.8,3.1-5.6,4.1-8.4s1.5-5.4,1.5-7.7c0-1.8-0.3-2.7-1-2.7C261,106.6,260.4,107.6,259.7,109.5z"/>
</g>
<g>
	<path class="st6" d="M33.7,116.4c-1.4,1.5-3.5,2.5-6.3,3.2c1.5,0.4,2.6,1.1,3.4,2s1.2,2,1.2,3.2c0,1.9-0.6,3.5-1.8,4.9
		c-1.2,1.4-2.9,2.5-5.2,3.2c-2.3,0.8-5,1.1-8.2,1.1c-1.2,0-2.2,0-2.9-0.1c0,0.7-0.3,1.2-0.9,1.5s-1.3,0.5-2.1,0.5
		c-0.9,0-1.5-0.2-1.8-0.6s-0.5-0.9-0.4-1.7c0.2-3.4,0.6-6.9,1.3-10.6c0.6-3.7,1.4-7.2,2.4-10.7c0.2-0.6,0.5-1,1-1.3
		c0.5-0.2,1.2-0.4,2-0.4c1.5,0,2.2,0.4,2.2,1.2c0,0.3-0.1,0.7-0.2,1.2c-0.6,1.9-1.2,4.4-1.9,7.6c-0.6,3.2-1.1,6.3-1.3,9.2
		c1.2,0.1,2.1,0.1,2.8,0.1c3.4,0,5.8-0.5,7.4-1.5s2.4-2.2,2.4-3.7c0-1.1-0.5-1.9-1.4-2.7c-0.9-0.7-2.4-1.1-4.5-1.2
		c-0.5,0-0.8-0.1-1-0.4c-0.2-0.2-0.3-0.6-0.3-1c0-0.7,0.1-1.3,0.4-1.7c0.3-0.4,0.8-0.7,1.6-0.7c1.7,0,3.2-0.3,4.6-0.8
		s2.5-1.1,3.3-1.9s1.2-1.8,1.2-2.9c0-1.4-0.7-2.5-2.1-3.3s-3.5-1.2-6.3-1.2c-2.6,0-5.1,0.3-7.5,1s-4.4,1.5-6.1,2.5
		c-0.8,0.5-1.4,0.7-1.9,0.7c-0.4,0-0.8-0.1-1-0.5c-0.2-0.3-0.3-0.7-0.3-1.1c0-0.6,0.1-1.1,0.4-1.5s0.9-0.9,1.8-1.5
		c2-1.2,4.4-2.1,7.1-2.7s5.5-1,8.3-1c4.3,0,7.6,0.7,9.7,2.2s3.2,3.4,3.2,5.8C35.9,113.2,35.2,114.9,33.7,116.4z"/>
	<path class="st6" d="M54,123.6c0.2,0.3,0.3,0.7,0.3,1.2c0,1.2-0.3,1.8-1,2.1c-1.4,0.5-3,0.8-4.8,0.9c-0.5,2-1.4,3.6-2.7,4.8
		c-1.3,1.2-2.9,1.8-4.6,1.8c-1.4,0-2.7-0.3-3.7-1s-1.8-1.6-2.3-2.8c-0.5-1.2-0.8-2.4-0.8-3.7c0-1.8,0.3-3.4,1-4.9
		c0.7-1.4,1.7-2.5,2.9-3.3c1.2-0.8,2.6-1.2,4.1-1.2c1.8,0,3.3,0.6,4.4,1.9s1.8,2.8,2,4.7c1.1-0.1,2.5-0.3,4-0.7
		c0.2,0,0.4-0.1,0.5-0.1C53.6,123.1,53.8,123.3,54,123.6z M43.4,129.6c0.6-0.6,0.9-1.5,1.1-2.7c-0.7-0.5-1.3-1.2-1.7-2
		c-0.4-0.8-0.6-1.7-0.6-2.6c0-0.4,0-0.8,0.1-1.2h-0.2c-1,0-1.8,0.5-2.4,1.4s-1,2.2-1,3.9c0,1.3,0.3,2.3,0.8,3s1.1,1,1.8,1
		C42.2,130.5,42.9,130.2,43.4,129.6z"/>
	<path class="st6" d="M51.8,132.9c-0.4-1-0.6-2.5-0.6-4.6c0-3.1,0.4-6.1,1.3-8.9c0.2-0.7,0.6-1.2,1.1-1.5s1.2-0.5,2.1-0.5
		c0.5,0,0.8,0.1,1,0.2s0.3,0.3,0.3,0.7c0,0.4-0.2,1.2-0.5,2.6c-0.2,1-0.4,1.8-0.6,2.5c-0.1,0.7-0.3,1.6-0.4,2.7
		c0.8-2.1,1.7-3.7,2.7-5s1.9-2.2,2.9-2.8c0.9-0.6,1.8-0.8,2.6-0.8c1.6,0,2.3,0.8,2.3,2.3c0,0.3-0.1,1.1-0.3,2.3
		c-0.2,1-0.3,1.6-0.3,1.8c0,0.8,0.3,1.3,0.9,1.3c0.7,0,1.5-0.5,2.6-1.6c0.3-0.3,0.6-0.5,1-0.5c0.3,0,0.6,0.1,0.7,0.4
		c0.2,0.3,0.3,0.6,0.3,1.1c0,0.9-0.2,1.6-0.7,2.1c-0.7,0.7-1.5,1.3-2.4,1.8s-1.9,0.7-2.9,0.7c-1.3,0-2.2-0.3-2.9-1
		c-0.7-0.6-1-1.5-1-2.6c0-0.4,0-0.7,0.1-1.1c0-0.5,0.1-0.8,0.1-1c0-0.4-0.1-0.6-0.4-0.6c-0.4,0-0.8,0.4-1.4,1.2
		c-0.6,0.8-1.2,1.9-1.7,3.2c-0.6,1.3-1,2.7-1.4,4.2c-0.3,1.1-0.6,1.9-0.9,2.3s-0.9,0.6-1.6,0.6C52.8,134.3,52.1,133.9,51.8,132.9z"
		/>
	<path class="st6" d="M68.3,132.7c-0.9-1.1-1.3-2.5-1.3-4.2c0-1.9,0.4-3.7,1.3-5.5c0.9-1.7,2.1-3.1,3.5-4.1c1.5-1,3-1.6,4.7-1.6
		c0.5,0,0.9,0.1,1.1,0.3c0.2,0.2,0.3,0.6,0.5,1.1c0.5-0.1,1-0.1,1.5-0.1c0.6,0,1,0.1,1.3,0.4s0.5,0.7,0.5,1.2c0,0.6-0.1,1.5-0.4,2.9
		c-0.3,1.5-0.5,2.9-0.6,4.2s-0.2,2.8-0.2,4.5c0,0.9-0.2,1.6-0.6,2s-1,0.6-1.8,0.6s-1.4-0.2-1.8-0.6s-0.6-1-0.6-1.9v-0.6
		c-0.7,2.1-2,3.1-3.9,3.1C70.3,134.3,69.2,133.8,68.3,132.7z M74.9,129.3c0.6-0.9,1-2.6,1.5-5l0.7-3.6c-1,0-1.9,0.4-2.7,1.1
		c-0.8,0.7-1.5,1.7-2,2.9s-0.8,2.5-0.8,3.8c0,0.7,0.1,1.3,0.4,1.6c0.3,0.4,0.6,0.6,1.1,0.6C73.7,130.7,74.3,130.2,74.9,129.3z"/>
	<path class="st6" d="M120.9,116.4c-1.4,1.5-3.5,2.5-6.3,3.2c1.5,0.4,2.6,1.1,3.4,2s1.2,2,1.2,3.2c0,1.9-0.6,3.5-1.8,4.9
		c-1.2,1.4-2.9,2.5-5.2,3.2c-2.3,0.8-5,1.1-8.2,1.1c-1.2,0-2.2,0-2.9-0.1c0,0.7-0.3,1.2-0.9,1.5s-1.3,0.5-2.1,0.5
		c-0.9,0-1.5-0.2-1.8-0.6s-0.5-0.9-0.4-1.7c0.2-3.4,0.6-6.9,1.3-10.6c0.6-3.7,1.4-7.2,2.4-10.7c0.2-0.6,0.5-1,1-1.3s1.2-0.4,2-0.4
		c1.5,0,2.2,0.4,2.2,1.2c0,0.3-0.1,0.7-0.2,1.2c-0.6,1.9-1.2,4.4-1.9,7.6s-1.1,6.3-1.3,9.2c1.2,0.1,2.1,0.1,2.8,0.1
		c3.4,0,5.8-0.5,7.4-1.5s2.4-2.2,2.4-3.7c0-1.1-0.5-1.9-1.3-2.7c-0.9-0.7-2.4-1.1-4.5-1.2c-0.5,0-0.8-0.1-1-0.4
		c-0.2-0.2-0.3-0.6-0.3-1c0-0.7,0.1-1.3,0.4-1.7s0.8-0.7,1.6-0.7c1.7,0,3.2-0.3,4.6-0.8s2.5-1.1,3.3-1.9s1.2-1.8,1.2-2.9
		c0-1.4-0.7-2.5-2.1-3.3s-3.5-1.2-6.3-1.2c-2.6,0-5.1,0.3-7.5,1s-4.4,1.5-6.1,2.5c-0.8,0.5-1.4,0.7-1.9,0.7c-0.4,0-0.8-0.1-1-0.5
		c-0.2-0.3-0.3-0.7-0.3-1.1c0-0.6,0.1-1.1,0.4-1.5s0.9-0.9,1.8-1.5c2-1.2,4.4-2.1,7.1-2.7s5.5-1,8.3-1c4.3,0,7.6,0.7,9.7,2.2
		s3.2,3.4,3.2,5.8C123.1,113.2,122.3,114.9,120.9,116.4z"/>
	<path class="st6" d="M141.1,123.6c0.2,0.3,0.3,0.7,0.3,1.2c0,1.2-0.3,1.8-1,2.1c-1.4,0.5-3,0.8-4.8,0.9c-0.5,2-1.4,3.6-2.7,4.8
		c-1.3,1.2-2.9,1.8-4.6,1.8c-1.4,0-2.7-0.3-3.7-1s-1.8-1.6-2.3-2.8c-0.5-1.2-0.8-2.4-0.8-3.7c0-1.8,0.3-3.4,1-4.9
		c0.7-1.4,1.7-2.5,2.9-3.3c1.2-0.8,2.6-1.2,4.1-1.2c1.8,0,3.3,0.6,4.4,1.9s1.8,2.8,2,4.7c1.1-0.1,2.5-0.3,4-0.7
		c0.2,0,0.4-0.1,0.5-0.1C140.7,123.1,141,123.3,141.1,123.6z M130.6,129.6c0.6-0.6,0.9-1.5,1.1-2.7c-0.7-0.5-1.3-1.2-1.7-2
		c-0.4-0.8-0.6-1.7-0.6-2.6c0-0.4,0-0.8,0.1-1.2h-0.2c-1,0-1.8,0.5-2.4,1.4s-1,2.2-1,3.9c0,1.3,0.3,2.3,0.8,3s1.1,1,1.8,1
		C129.4,130.5,130,130.2,130.6,129.6z"/>
	<path class="st6" d="M138.9,132.9c-0.4-1-0.6-2.5-0.6-4.6c0-3.1,0.4-6.1,1.3-8.9c0.2-0.7,0.6-1.2,1.1-1.5s1.2-0.5,2.1-0.5
		c0.5,0,0.8,0.1,1,0.2s0.3,0.3,0.3,0.7c0,0.4-0.2,1.2-0.5,2.6c-0.2,1-0.4,1.8-0.6,2.5c-0.1,0.7-0.3,1.6-0.4,2.7
		c0.8-2.1,1.7-3.7,2.7-5s1.9-2.2,2.9-2.8c0.9-0.6,1.8-0.8,2.6-0.8c1.6,0,2.3,0.8,2.3,2.3c0,0.3-0.1,1.1-0.3,2.3
		c-0.2,1-0.3,1.6-0.3,1.8c0,0.8,0.3,1.3,0.9,1.3c0.7,0,1.5-0.5,2.6-1.6c0.3-0.3,0.6-0.5,1-0.5c0.3,0,0.6,0.1,0.7,0.4
		c0.2,0.3,0.3,0.6,0.3,1.1c0,0.9-0.2,1.6-0.7,2.1c-0.7,0.7-1.5,1.3-2.4,1.8s-1.9,0.7-2.9,0.7c-1.3,0-2.2-0.3-2.9-1
		c-0.7-0.6-1-1.5-1-2.6c0-0.4,0-0.7,0.1-1.1c0-0.5,0.1-0.8,0.1-1c0-0.4-0.1-0.6-0.4-0.6c-0.4,0-0.8,0.4-1.4,1.2
		c-0.6,0.8-1.2,1.9-1.7,3.2c-0.6,1.3-1,2.7-1.4,4.2c-0.3,1.1-0.6,1.9-0.9,2.3s-0.9,0.6-1.6,0.6C139.9,134.3,139.3,133.9,138.9,132.9
		z"/>
	<path class="st6" d="M155.5,132.7c-0.9-1.1-1.3-2.5-1.3-4.2c0-1.9,0.4-3.7,1.3-5.5c0.9-1.7,2.1-3.1,3.5-4.1c1.5-1,3-1.6,4.7-1.6
		c0.5,0,0.9,0.1,1.1,0.3c0.2,0.2,0.3,0.6,0.4,1.1c0.5-0.1,1-0.1,1.5-0.1c0.6,0,1,0.1,1.3,0.4s0.5,0.7,0.5,1.2c0,0.6-0.1,1.5-0.4,2.9
		c-0.3,1.5-0.5,2.9-0.6,4.2c-0.1,1.3-0.2,2.8-0.2,4.5c0,0.9-0.2,1.6-0.6,2s-1,0.6-1.8,0.6s-1.4-0.2-1.8-0.6s-0.6-1-0.6-1.9v-0.6
		c-0.7,2.1-2,3.1-3.9,3.1C157.4,134.3,156.3,133.8,155.5,132.7z M162,129.3c0.6-0.9,1-2.6,1.5-5l0.7-3.6c-1,0-1.9,0.4-2.7,1.1
		c-0.8,0.7-1.5,1.7-2,2.9s-0.8,2.5-0.8,3.8c0,0.7,0.1,1.3,0.4,1.6c0.3,0.4,0.6,0.6,1.1,0.6C160.9,130.7,161.5,130.2,162,129.3z"/>
	<path class="st6" d="M208,116.4c-1.4,1.5-3.5,2.5-6.3,3.2c1.5,0.4,2.6,1.1,3.4,2s1.2,2,1.2,3.2c0,1.9-0.6,3.5-1.8,4.9
		c-1.2,1.4-2.9,2.5-5.2,3.2c-2.3,0.8-5,1.1-8.2,1.1c-1.2,0-2.2,0-2.9-0.1c0,0.7-0.3,1.2-0.9,1.5s-1.3,0.5-2.1,0.5
		c-0.9,0-1.5-0.2-1.8-0.6s-0.5-0.9-0.4-1.7c0.2-3.4,0.6-6.9,1.3-10.6c0.6-3.7,1.4-7.2,2.4-10.7c0.2-0.6,0.5-1,1-1.3s1.2-0.4,2-0.4
		c1.5,0,2.2,0.4,2.2,1.2c0,0.3-0.1,0.7-0.2,1.2c-0.6,1.9-1.2,4.4-1.9,7.6s-1.1,6.3-1.3,9.2c1.2,0.1,2.1,0.1,2.8,0.1
		c3.4,0,5.8-0.5,7.4-1.5s2.4-2.2,2.4-3.7c0-1.1-0.5-1.9-1.3-2.7c-0.9-0.7-2.4-1.1-4.5-1.2c-0.5,0-0.8-0.1-1-0.4
		c-0.2-0.2-0.3-0.6-0.3-1c0-0.7,0.1-1.3,0.4-1.7s0.8-0.7,1.6-0.7c1.7,0,3.2-0.3,4.6-0.8s2.5-1.1,3.3-1.9s1.2-1.8,1.2-2.9
		c0-1.4-0.7-2.5-2.1-3.3s-3.5-1.2-6.3-1.2c-2.6,0-5.1,0.3-7.5,1s-4.4,1.5-6.1,2.5c-0.8,0.5-1.4,0.7-1.9,0.7c-0.4,0-0.8-0.1-1-0.5
		c-0.2-0.3-0.3-0.7-0.3-1.1c0-0.6,0.1-1.1,0.4-1.5s0.9-0.9,1.8-1.5c2-1.2,4.4-2.1,7.1-2.7s5.5-1,8.3-1c4.3,0,7.6,0.7,9.7,2.2
		s3.2,3.4,3.2,5.8C210.2,113.2,209.5,114.9,208,116.4z"/>
	<path class="st6" d="M228.3,123.6c0.2,0.3,0.3,0.7,0.3,1.2c0,1.2-0.3,1.8-1,2.1c-1.4,0.5-3,0.8-4.8,0.9c-0.5,2-1.4,3.6-2.7,4.8
		c-1.3,1.2-2.9,1.8-4.6,1.8c-1.4,0-2.7-0.3-3.7-1s-1.8-1.6-2.3-2.8c-0.5-1.2-0.8-2.4-0.8-3.7c0-1.8,0.3-3.4,1-4.9
		c0.7-1.4,1.7-2.5,2.9-3.3c1.2-0.8,2.6-1.2,4.1-1.2c1.8,0,3.3,0.6,4.4,1.9s1.8,2.8,2,4.7c1.1-0.1,2.5-0.3,4-0.7
		c0.2,0,0.4-0.1,0.5-0.1C227.9,123.1,228.1,123.3,228.3,123.6z M217.8,129.6c0.6-0.6,0.9-1.5,1.1-2.7c-0.7-0.5-1.3-1.2-1.7-2
		c-0.4-0.8-0.6-1.7-0.6-2.6c0-0.4,0-0.8,0.1-1.2h-0.2c-1,0-1.8,0.5-2.4,1.4s-1,2.2-1,3.9c0,1.3,0.3,2.3,0.8,3s1.1,1,1.8,1
		C216.5,130.5,217.2,130.2,217.8,129.6z"/>
	<path class="st6" d="M253,123.2c0.4,0,0.6,0.1,0.8,0.4c0.2,0.2,0.3,0.6,0.3,1c0,0.7-0.1,1.3-0.4,1.7s-0.7,0.7-1.3,0.9
		c-1.1,0.4-2.3,0.5-3.5,0.5c-1.1,0-2.1-0.1-3-0.4c-0.7,1.1-1.5,2.3-2.3,3.5c-1,1.4-1.8,2.3-2.5,2.8s-1.5,0.8-2.3,0.8
		c-1,0-1.7-0.4-2.2-1.1s-0.8-2-0.9-3.7l-0.2-2.6c-0.7,2-1.4,3.6-2,4.6c-0.6,1.1-1.2,1.8-1.8,2.2c-0.6,0.4-1.3,0.6-2.1,0.6
		c-1,0-1.8-0.4-2.3-1.2c-0.6-0.8-0.9-2-1.1-3.6c-0.3-3.4-0.4-6.3-0.4-8.8v-1.3c0-0.8,0.2-1.3,0.6-1.7c0.4-0.3,1-0.5,1.8-0.5
		c0.6,0,1.1,0.1,1.4,0.4c0.3,0.3,0.5,0.7,0.5,1.4c0,2.8,0.2,6.3,0.5,10.8c1.6-3.4,3.1-7,4.5-10.7c0.3-0.7,0.6-1.2,1-1.5
		s0.8-0.4,1.3-0.4c0.6,0,1.1,0.1,1.4,0.4c0.3,0.3,0.4,0.7,0.4,1.4c0,2.8,0.2,6.3,0.5,10.8c1.4-2.1,2.5-3.8,3.2-5.1
		c-0.4-0.7-0.5-1.5-0.5-2.5c0-0.8,0.2-1.6,0.5-2.4c0.4-0.8,0.9-1.4,1.5-1.9s1.3-0.7,2.1-0.7c0.7,0,1.3,0.2,1.7,0.7s0.6,1.2,0.6,2.1
		c0,1.1-0.3,2.3-0.9,3.7c0.9,0,2.1-0.2,3.6-0.5l1-0.2C252.7,123.2,252.8,123.2,253,123.2z"/>
	<path class="st6" d="M262.2,128.7c0.3,0,0.5,0.2,0.7,0.5s0.3,0.7,0.3,1.2c0,1-0.4,1.8-1.1,2.4c-1.2,1-2.7,1.5-4.2,1.5
		c-2.3,0-3.9-1-5-2.9s-1.6-4.4-1.6-7.5c0-2.9,0.4-6.3,1.1-10c0.8-3.7,1.9-7,3.3-9.6c1.5-2.7,3.2-4,5.3-4c1.2,0,2.1,0.5,2.7,1.6
		s1,2.6,1,4.6c0,2.9-0.8,6.2-2.4,9.9c-1.6,3.8-3.7,7.5-6.4,11.2c0.2,1,0.5,1.7,0.9,2.1s1,0.6,1.8,0.6c0.4,0,0.9-0.1,1.4-0.4
		c0.5-0.2,1-0.6,1.4-0.9C261.7,128.9,261.9,128.7,262.2,128.7z M258.3,106.9c-0.7,2-1.3,4.5-1.8,7.4c-0.5,3-0.8,5.8-0.9,8.5
		c1.7-2.8,3.1-5.6,4.1-8.4s1.5-5.4,1.5-7.7c0-1.8-0.3-2.7-1-2.7C259.7,103.9,259,104.9,258.3,106.9z"/>
</g>
</svg>
